<?xml version="1.0" standalone="no"?>
<!DOCTYPE svg PUBLIC "-//W3C//DTD SVG 20010904//EN"
 "http://www.w3.org/TR/2001/REC-SVG-20010904/DTD/svg10.dtd">
<svg version="1.0" xmlns="http://www.w3.org/2000/svg"
 width="16.000000pt" height="16.000000pt" viewBox="0 0 16.000000 16.000000"
 preserveAspectRatio="xMidYMid meet">
<metadata>
Created by potrace 1.11, written by Peter Selinger 2001-2013
</metadata>
<g transform="translate(0.000000,16.000000) scale(0.006250,-0.006250)"
fill="#000000" stroke="none">
<path d="M1120 2544 c-242 -44 -470 -182 -607 -368 -96 -130 -120 -220 -120
-444 0 -167 -1 -169 -30 -233 -57 -121 -65 -138 -102 -235 -21 -54 -36 -107
-33 -120 6 -32 53 -59 150 -86 l82 -23 0 -40 c0 -22 -7 -51 -16 -63 -21 -30
-14 -64 16 -79 14 -7 20 -13 14 -13 -6 0 -16 -12 -23 -26 -10 -23 -9 -31 13
-63 24 -35 25 -40 15 -100 -16 -101 4 -173 58 -208 23 -16 58 -18 260 -21
l233 -3 20 -26 c25 -32 53 -125 81 -273 12 -63 23 -116 24 -118 1 -1 330 106
330 108 0 0 127 43 283 95 156 52 287 97 291 99 4 3 -5 42 -20 88 -41 123 -61
233 -51 272 5 18 38 75 74 127 293 427 350 846 166 1214 -147 294 -379 472
-703 541 -62 13 -330 12 -405 -2z m176 -342 c16 -10 34 -48 34 -71 0 -24 40
-57 81 -66 23 -5 39 -1 69 19 22 14 48 26 59 26 23 0 101 -87 101 -112 0 -10
-16 -36 -36 -58 -31 -34 -35 -44 -29 -72 12 -62 17 -68 61 -89 25 -11 48 -27
51 -35 9 -23 -26 -122 -49 -138 -14 -10 -28 -12 -51 -5 -54 15 -78 10 -112
-24 -30 -30 -32 -36 -28 -84 4 -45 2 -53 -19 -66 -34 -22 -119 -31 -139 -15
-9 7 -21 32 -28 56 -11 38 -18 46 -58 63 l-46 20 -36 -24 c-64 -43 -74 -42
-120 5 -59 61 -61 80 -17 129 33 36 36 44 31 82 -6 42 -42 87 -69 87 -7 0 -21
9 -31 20 -18 20 -18 22 0 77 25 74 39 86 84 78 20 -4 46 -9 58 -11 14 -3 33 7
56 30 33 32 35 38 32 84 -1 27 1 55 5 62 6 10 67 28 130 39 3 0 10 -3 16 -7z
m554 -707 c12 -14 10 -42 -5 -77 -8 -20 39 -73 55 -63 17 11 51 -6 59 -28 12
-32 -4 -55 -45 -63 -21 -4 -41 -16 -51 -30 -14 -22 -14 -26 1 -49 45 -69 -21
-118 -76 -56 -32 36 -70 32 -95 -10 -12 -21 -25 -29 -45 -29 -37 0 -50 27 -36
73 15 48 -8 87 -47 79 -29 -5 -65 21 -65 48 0 18 32 52 46 49 51 -9 75 32 50
85 -13 27 -14 41 -6 56 16 31 62 26 87 -8 28 -38 71 -34 95 9 19 32 57 39 78
14z"/>
<path d="M1255 1939 c-62 -17 -112 -93 -101 -152 13 -72 59 -117 127 -124 113
-11 185 95 140 205 -23 55 -101 88 -166 71z m85 -112 c16 -28 9 -51 -22 -70
-22 -15 -65 0 -71 24 -18 67 60 104 93 46z"/>
<path d="M1723 1352 c-13 -2 -29 -13 -37 -24 -13 -18 -13 -25 -1 -49 8 -15 20
-29 27 -31 47 -16 92 40 66 81 -15 24 -25 28 -55 23z"/>
</g>
</svg>
